<?xml version="1.0" standalone="no"?><!DOCTYPE svg PUBLIC "-//W3C//DTD SVG 1.1//EN" "http://www.w3.org/Graphics/SVG/1.1/DTD/svg11.dtd"><svg t="1586007814213" class="icon" viewBox="0 0 1024 1024" version="1.1" xmlns="http://www.w3.org/2000/svg" p-id="7339" xmlns:xlink="http://www.w3.org/1999/xlink" width="200" height="200"><defs><style type="text/css"></style></defs><path d="M491.266 665.192c-19.564 0-38.772-5.075-57.091-15.083-28.51-15.575-326.123-189.452-338.778-196.847l-1.343-0.832c-4.595-3.011-27.595-19.456-29.208-47.466-0.733-12.747 2.874-31.683 24.228-49.5l2.529-2.11L494.208 142.91c6.484-4.038 25.806-14.559 51.127-14.559 18.049 0 35.198 5.16 50.974 15.339 37.943 24.478 331.77 207.44 334.733 209.286l0.589 0.376c4.937 3.232 29.563 20.836 29.465 50.071-0.045 13.561-5.596 33.272-31.782 50.167C899.354 472.92 583.8 631.665 542.97 652.187c-6.25 3.615-25.053 13.005-51.704 13.005z m-361.09-262.72c35.548 20.765 307.381 179.522 333.435 193.756 9.19 5.02 18.494 7.567 27.654 7.567 11.254 0 19.254-3.868 20.804-4.677l1.514-1.049 0.844-0.252c139.635-70.176 353.53-178.712 380.393-195.065-36.099-22.48-295.351-183.954-331.798-207.468-5.77-3.723-11.557-5.533-17.688-5.533-9.917 0-18.06 4.861-18.13 4.91l-1.61 1.124-395.418 206.687z" p-id="7340"></path><path d="M955.967 540.969c0-16.404-14.1-29.71-31.493-29.71-7.566 0-14.505 2.517-19.934 6.715l-0.136-0.203c-21.338 13.42-245.852 124.473-391.554 195.848l-0.863 0.26-1.55 1.043c-3.418 1.821-23.625 11.303-50.297-2.901-27.615-14.705-324.165-183.55-344.872-195.346-5.366-4.004-12.14-6.398-19.513-6.398-17.394 0-31.494 13.306-31.494 29.71 0 12.142 7.727 22.578 18.792 27.185l-0.046 0.075C95.99 574.642 401.3 748.51 430.541 764.08c20.681 11.014 40.76 14.965 58.464 14.965 22.723 0 41.536-6.51 52.688-12.956 41.796-20.476 356.866-174.976 394.766-197.643 11.446-4.449 19.508-15.073 19.508-27.477z" p-id="7341"></path><path d="M955.967 658.824c0-16.409-14.1-29.71-31.493-29.71-7.566 0-14.505 2.517-19.934 6.711l-0.136-0.202c-21.338 13.418-245.852 124.476-391.554 195.85l-0.863 0.26-1.55 1.044c-3.418 1.821-23.625 11.302-50.297-2.902C432.525 815.17 135.975 646.32 115.268 634.53c-5.366-4.004-12.14-6.4-19.513-6.4-17.394 0-31.494 13.303-31.494 29.71 0 12.144 7.727 22.579 18.792 27.187l-0.046 0.074C95.99 692.496 401.3 866.364 430.541 881.934c20.681 11.015 40.76 14.966 58.464 14.966 22.723 0 41.536-6.51 52.688-12.957 41.796-20.476 356.866-174.975 394.766-197.642 11.446-4.449 19.508-15.073 19.508-27.477z" p-id="7342"></path></svg>