<?xml version="1.0" standalone="no"?><!DOCTYPE svg PUBLIC "-//W3C//DTD SVG 1.1//EN" "http://www.w3.org/Graphics/SVG/1.1/DTD/svg11.dtd"><svg t="1587482752645" class="icon" viewBox="0 0 1024 1024" version="1.1" xmlns="http://www.w3.org/2000/svg" p-id="27166" xmlns:xlink="http://www.w3.org/1999/xlink" width="64" height="64"><defs><style type="text/css"></style></defs><path d="M383.613 333.859h277.493c18.724 0 36.743-7.924 48.757-22.284 28.624-34.025 55.8-75.816 61.884-113.243 12.268-74.934-19.839-112.989-112.989-112.989-93.13 0-61.63 61.122-97.846 66.17-26.98 3.737-26.022-31.872-68.42-66.072-30.463-24.457-64.584 44.648-104.791 45.078-46.918 0.626-112.911-12.346-112.911 67.813 0 32.38 28.389 76.168 59.38 112.461 12.443 14.537 30.366 23.068 49.441 23.068z" p-id="27167"></path><path d="M729.8 405.252c-14.811-16.807-36.313-26.218-58.675-26.218h-296.139c-21.404 0-42.046 8.628-56.837 24.125-93.053 97.493-178.884 236.68-178.884 338.184 0 89.472 89.922 202.461 200.818 202.461h343.839c110.896 0 200.818-112.030 200.818-202.461 0-103.343-69.025-238.597-154.937-336.091v0zM639.35 528.416l-59.537 108.020c-5.225 9.489 1.643 21.17 12.443 21.17h16.884c7.846 0 14.282 6.339 14.282 14.263 0 7.846-6.359 14.282-14.282 14.282h-42.475c-8.275 0-14.889 6.613-14.968 14.889v7.043c0 7.825 6.359 14.282 14.263 14.282h43.18c7.846 0 14.282 6.339 14.282 14.263s-6.359 14.282-14.282 14.282h-43.18c-7.826 0-14.263 6.359-14.263 14.282v36.293c0 7.825-6.359 14.263-14.282 14.263h-25.846c-7.846 0-14.282-6.339-14.282-14.263v-36.293c0-7.846-6.359-14.282-14.282-14.282h-42.73c-7.846 0-14.282-6.359-14.282-14.282 0-7.924 6.359-14.263 14.282-14.263h42.652c7.924 0 14.282-6.359 14.361-14.282l0.097-6.966c0.078-8.276-6.632-15.066-14.987-15.066h-42.125c-7.846 0-14.282-6.339-14.282-14.263 0-7.846 6.359-14.282 14.282-14.282h16.454c10.878 0 17.668-11.661 12.443-21.15l-59.537-108.020c-5.225-9.489 1.643-21.15 12.443-21.15h28.37c5.4 0 10.37 3.032 12.718 7.826l48.482 96.711c5.224 10.448 20.191 10.448 25.513 0l48.482-96.711c2.426-4.793 7.318-7.826 12.697-7.826h28.389c10.957 0.157 17.843 11.739 12.62 21.228v0z" p-id="27168"></path></svg>