<?xml version="1.0" standalone="no"?><!DOCTYPE svg PUBLIC "-//W3C//DTD SVG 1.1//EN" "http://www.w3.org/Graphics/SVG/1.1/DTD/svg11.dtd"><svg t="1587482248705" class="icon" viewBox="0 0 1024 1024" version="1.1" xmlns="http://www.w3.org/2000/svg" p-id="19174" xmlns:xlink="http://www.w3.org/1999/xlink" width="64" height="64"><defs><style type="text/css"></style></defs><path d="M746.666667 954.88H0s0-149.333333 4.693333-177.066667c3.413333-21.333333 32.853333-51.2 157.653334-98.986666s115.413333-40.32 115.413333-128c0-56.106667-27.306667-19.626667-44.8-125.866667-6.826667-42.666667-12.373333-14.08-27.093333-81.066667-7.893333-35.2 5.333333-37.76 3.626666-54.613333s-3.413333-31.786667-6.186666-66.133333c-3.413333-42.666667 34.346667-154.666667 170.666666-154.666667s174.08 112 170.666667 154.666667c-2.773333 34.346667-4.266667 49.28-5.973333 66.133333s11.52 19.626667 3.626666 54.613333c-14.506667 67.2-20.053333 39.253333-26.88 81.066667-17.493333 106.666667-45.013333 69.76-45.013333 125.866667 0 74.453333-5.546667 83.413333 71.04 110.72l44.373333 16.426666c124.8 47.786667 154.24 77.013333 157.653334 98.986667 2.346667 14.72 3.413333 64 3.84 106.666667-0.64 38.613333-0.64 71.253333-0.64 71.253333z m153.6-279.68c95.573333 36.48 117.973333 58.88 120.533333 75.52 3.413333 21.333333 3.413333 204.16 3.413333 204.16H802.773333c0-42.666667-1.493333-159.573333-3.84-174.293333-3.2-21.333333 0-67.2-123.306666-114.133334-17.28-6.613333-31.573333-11.733333-42.666667-16.213333 40.746667-19.2 33.706667-32 33.706667-62.506667 0-42.666667-21.333333-27.093333-34.133334-108.373333-5.12-32.213333-9.6-10.666667-21.333333-61.866667-5.973333-26.88 3.84-28.8 2.773333-41.6s-2.56-24.106667-4.48-50.346666c-2.773333-32.64 26.24-117.973333 129.92-117.973334s132.693333 85.333333 129.92 117.973334c-2.346667 26.026667-3.413333 37.76-4.48 50.346666s8.533333 14.72 2.773334 41.6c-11.093333 51.2-15.36 29.866667-21.333334 61.866667-13.44 81.28-34.346667 65.493333-34.346666 108.373333 0.213333 66.133333-5.546667 52.266667 88.32 87.466667z" p-id="19175"></path></svg>